# MagicaVoxel @ Ephtracy

# group
o 

# material
mtllib Panel.mtl
usemtl palette

# normals
vn -1 0 0
vn 1 0 0
vn 0 0 1
vn 0 0 -1
vn 0 -1 0
vn 0 1 0

# texcoords
vt 0.958984 0.5
vt 0.990234 0.5

# verts
v -1 2.2 0
v -1 2.2 -0.1
v -1 3.3 0
v -1 3.3 -0.1
v -0.9 2.1 0
v -0.9 2.1 -0.1
v -0.9 2.2 0
v -0.9 2.2 -0.1
v -0.9 3.3 0
v -0.9 3.3 -0.1
v -0.9 3.8 0
v -0.9 3.8 -0.1
v -0.8 3.8 0
v -0.8 3.8 -0.1
v -0.8 3.9 0
v -0.8 3.9 -0.1
v -0.7 0 0
v -0.7 0 -0.1
v -0.7 0.1 0
v -0.7 0.1 -0.1
v -0.7 3.9 0
v -0.7 3.9 -0.1
v -0.7 4.1 0
v -0.7 4.1 -0.1
v -0.6 0.1 0
v -0.6 0.1 -0.1
v -0.6 0.2 0
v -0.6 0.2 -0.1
v -0.5 4.1 0
v -0.5 4.1 -0.1
v -0.5 4.2 0
v -0.5 4.2 -0.1
v -0.4 0.2 0
v -0.4 0.2 -0.1
v -0.4 0.3 0
v -0.4 0.3 -0.1
v -0.4 4.4 0
v -0.4 4.4 -0.1
v -0.4 4.9 0
v -0.4 4.9 -0.1
v -0.3 4.3 0
v -0.3 4.3 -0.1
v -0.3 4.4 0
v -0.3 4.4 -0.1
v -0.3 4.9 0
v -0.3 4.9 -0.1
v -0.3 5 0
v -0.3 5 -0.1
v -0.2 0.3 0
v -0.2 0.3 -0.1
v -0.2 2.1 0
v -0.2 2.1 -0.1
v -0.2 4.2 0
v -0.2 4.2 -0.1
v -0.2 4.3 0
v -0.2 4.3 -0.1
v 0.2 0.3 0
v 0.2 0.3 -0.1
v 0.2 2.1 0
v 0.2 2.1 -0.1
v 0.2 4.2 0
v 0.2 4.2 -0.1
v 0.2 4.3 0
v 0.2 4.3 -0.1
v 0.3 4.3 0
v 0.3 4.3 -0.1
v 0.3 4.4 0
v 0.3 4.4 -0.1
v 0.3 4.9 0
v 0.3 4.9 -0.1
v 0.3 5 0
v 0.3 5 -0.1
v 0.4 0.2 0
v 0.4 0.2 -0.1
v 0.4 0.3 0
v 0.4 0.3 -0.1
v 0.4 4.4 0
v 0.4 4.4 -0.1
v 0.4 4.9 0
v 0.4 4.9 -0.1
v 0.5 4.1 0
v 0.5 4.1 -0.1
v 0.5 4.2 0
v 0.5 4.2 -0.1
v 0.6 0.1 0
v 0.6 0.1 -0.1
v 0.6 0.2 0
v 0.6 0.2 -0.1
v 0.7 0 0
v 0.7 0 -0.1
v 0.7 0.1 0
v 0.7 0.1 -0.1
v 0.7 3.9 0
v 0.7 3.9 -0.1
v 0.7 4.1 0
v 0.7 4.1 -0.1
v 0.8 3.8 0
v 0.8 3.8 -0.1
v 0.8 3.9 0
v 0.8 3.9 -0.1
v 0.9 2.1 0
v 0.9 2.1 -0.1
v 0.9 2.2 0
v 0.9 2.2 -0.1
v 0.9 3.3 0
v 0.9 3.3 -0.1
v 0.9 3.8 0
v 0.9 3.8 -0.1
v 1 2.2 0
v 1 2.2 -0.1
v 1 3.3 0
v 1 3.3 -0.1
v -1 2.2 0
v -1 3.3 0
v -0.9 2.1 0
v -0.9 2.2 0
v -0.9 3.3 0
v -0.9 3.8 0
v -0.8 3.8 0
v -0.8 3.9 0
v -0.7 0 0
v -0.7 0.1 0
v -0.7 2.6 0
v -0.7 3.8 0
v -0.7 3.9 0
v -0.7 4.1 0
v -0.6 0.1 0
v -0.6 0.2 0
v -0.6 2.5 0
v -0.6 2.6 0
v -0.6 3.8 0
v -0.6 3.9 0
v -0.5 2.4 0
v -0.5 2.5 0
v -0.5 2.6 0
v -0.5 2.7 0
v -0.5 3.7 0
v -0.5 3.8 0
v -0.5 3.9 0
v -0.5 4 0
v -0.5 4.1 0
v -0.5 4.2 0
v -0.4 0.2 0
v -0.4 0.3 0
v -0.4 2.3 0
v -0.4 2.4 0
v -0.4 2.5 0
v -0.4 2.6 0
v -0.4 2.7 0
v -0.4 3.7 0
v -0.4 3.8 0
v -0.4 4.4 0
v -0.4 4.9 0
v -0.3 2.9 0
v -0.3 3.5 0
v -0.3 3.9 0
v -0.3 4 0
v -0.3 4.1 0
v -0.3 4.3 0
v -0.3 4.4 0
v -0.3 4.8 0
v -0.3 4.9 0
v -0.3 5 0
v -0.2 0.3 0
v -0.2 2.1 0
v -0.2 2.5 0
v -0.2 2.6 0
v -0.2 2.7 0
v -0.2 2.8 0
v -0.2 2.9 0
v -0.2 3.5 0
v -0.2 3.6 0
v -0.2 3.7 0
v -0.2 3.8 0
v -0.2 3.9 0
v -0.2 4.2 0
v -0.2 4.3 0
v -0.2 4.4 0
v -0.2 4.8 0
v -0.2 4.9 0
v -0.1 2.7 0
v -0.1 2.8 0
v -0.1 2.9 0
v -0.1 3 0
v -0.1 3.4 0
v -0.1 3.5 0
v -0.1 3.6 0
v -0.1 3.7 0
v -0.1 4.5 0
v -0.1 4.7 0
v 0.1 2.7 0
v 0.1 2.8 0
v 0.1 2.9 0
v 0.1 3 0
v 0.1 3.4 0
v 0.1 3.5 0
v 0.1 3.6 0
v 0.1 3.7 0
v 0.1 4.5 0
v 0.1 4.7 0
v 0.2 0.3 0
v 0.2 2.1 0
v 0.2 2.5 0
v 0.2 2.6 0
v 0.2 2.7 0
v 0.2 2.8 0
v 0.2 2.9 0
v 0.2 3.5 0
v 0.2 3.6 0
v 0.2 3.7 0
v 0.2 3.8 0
v 0.2 3.9 0
v 0.2 4.2 0
v 0.2 4.3 0
v 0.2 4.4 0
v 0.2 4.8 0
v 0.2 4.9 0
v 0.3 2.9 0
v 0.3 3.5 0
v 0.3 3.9 0
v 0.3 4 0
v 0.3 4.1 0
v 0.3 4.3 0
v 0.3 4.4 0
v 0.3 4.8 0
v 0.3 4.9 0
v 0.3 5 0
v 0.4 0.2 0
v 0.4 0.3 0
v 0.4 2.3 0
v 0.4 2.4 0
v 0.4 2.5 0
v 0.4 2.6 0
v 0.4 2.7 0
v 0.4 3.7 0
v 0.4 3.8 0
v 0.4 4.4 0
v 0.4 4.9 0
v 0.5 2.4 0
v 0.5 2.5 0
v 0.5 2.6 0
v 0.5 2.7 0
v 0.5 3.7 0
v 0.5 3.8 0
v 0.5 3.9 0
v 0.5 4 0
v 0.5 4.1 0
v 0.5 4.2 0
v 0.6 0.1 0
v 0.6 0.2 0
v 0.6 2.5 0
v 0.6 2.6 0
v 0.6 3.8 0
v 0.6 3.9 0
v 0.7 0 0
v 0.7 0.1 0
v 0.7 2.6 0
v 0.7 3.8 0
v 0.7 3.9 0
v 0.7 4.1 0
v 0.8 3.8 0
v 0.8 3.9 0
v 0.9 2.1 0
v 0.9 2.2 0
v 0.9 3.3 0
v 0.9 3.8 0
v 1 2.2 0
v 1 3.3 0
v -1 2.2 -0.1
v -1 3.3 -0.1
v -0.9 2.1 -0.1
v -0.9 2.2 -0.1
v -0.9 3.3 -0.1
v -0.9 3.8 -0.1
v -0.8 3.8 -0.1
v -0.8 3.9 -0.1
v -0.7 0 -0.1
v -0.7 0.1 -0.1
v -0.7 2.6 -0.1
v -0.7 3.8 -0.1
v -0.7 3.9 -0.1
v -0.7 4.1 -0.1
v -0.6 0.1 -0.1
v -0.6 0.2 -0.1
v -0.6 2.5 -0.1
v -0.6 2.6 -0.1
v -0.6 3.8 -0.1
v -0.6 3.9 -0.1
v -0.5 2.4 -0.1
v -0.5 2.5 -0.1
v -0.5 2.6 -0.1
v -0.5 2.7 -0.1
v -0.5 3.7 -0.1
v -0.5 3.8 -0.1
v -0.5 3.9 -0.1
v -0.5 4 -0.1
v -0.5 4.1 -0.1
v -0.5 4.2 -0.1
v -0.4 0.2 -0.1
v -0.4 0.3 -0.1
v -0.4 2.3 -0.1
v -0.4 2.4 -0.1
v -0.4 2.5 -0.1
v -0.4 2.6 -0.1
v -0.4 2.7 -0.1
v -0.4 3.7 -0.1
v -0.4 3.8 -0.1
v -0.4 4.4 -0.1
v -0.4 4.9 -0.1
v -0.3 2.9 -0.1
v -0.3 3.5 -0.1
v -0.3 3.9 -0.1
v -0.3 4 -0.1
v -0.3 4.1 -0.1
v -0.3 4.3 -0.1
v -0.3 4.4 -0.1
v -0.3 4.8 -0.1
v -0.3 4.9 -0.1
v -0.3 5 -0.1
v -0.2 0.3 -0.1
v -0.2 2.1 -0.1
v -0.2 2.5 -0.1
v -0.2 2.6 -0.1
v -0.2 2.7 -0.1
v -0.2 2.8 -0.1
v -0.2 2.9 -0.1
v -0.2 3.5 -0.1
v -0.2 3.6 -0.1
v -0.2 3.7 -0.1
v -0.2 3.8 -0.1
v -0.2 3.9 -0.1
v -0.2 4.2 -0.1
v -0.2 4.3 -0.1
v -0.2 4.4 -0.1
v -0.2 4.8 -0.1
v -0.2 4.9 -0.1
v -0.1 2.7 -0.1
v -0.1 2.8 -0.1
v -0.1 2.9 -0.1
v -0.1 3 -0.1
v -0.1 3.4 -0.1
v -0.1 3.5 -0.1
v -0.1 3.6 -0.1
v -0.1 3.7 -0.1
v -0.1 4.5 -0.1
v -0.1 4.7 -0.1
v 0.1 2.7 -0.1
v 0.1 2.8 -0.1
v 0.1 2.9 -0.1
v 0.1 3 -0.1
v 0.1 3.4 -0.1
v 0.1 3.5 -0.1
v 0.1 3.6 -0.1
v 0.1 3.7 -0.1
v 0.1 4.5 -0.1
v 0.1 4.7 -0.1
v 0.2 0.3 -0.1
v 0.2 2.1 -0.1
v 0.2 2.5 -0.1
v 0.2 2.6 -0.1
v 0.2 2.7 -0.1
v 0.2 2.8 -0.1
v 0.2 2.9 -0.1
v 0.2 3.5 -0.1
v 0.2 3.6 -0.1
v 0.2 3.7 -0.1
v 0.2 3.8 -0.1
v 0.2 3.9 -0.1
v 0.2 4.2 -0.1
v 0.2 4.3 -0.1
v 0.2 4.4 -0.1
v 0.2 4.8 -0.1
v 0.2 4.9 -0.1
v 0.3 2.9 -0.1
v 0.3 3.5 -0.1
v 0.3 3.9 -0.1
v 0.3 4 -0.1
v 0.3 4.1 -0.1
v 0.3 4.3 -0.1
v 0.3 4.4 -0.1
v 0.3 4.8 -0.1
v 0.3 4.9 -0.1
v 0.3 5 -0.1
v 0.4 0.2 -0.1
v 0.4 0.3 -0.1
v 0.4 2.3 -0.1
v 0.4 2.4 -0.1
v 0.4 2.5 -0.1
v 0.4 2.6 -0.1
v 0.4 2.7 -0.1
v 0.4 3.7 -0.1
v 0.4 3.8 -0.1
v 0.4 4.4 -0.1
v 0.4 4.9 -0.1
v 0.5 2.4 -0.1
v 0.5 2.5 -0.1
v 0.5 2.6 -0.1
v 0.5 2.7 -0.1
v 0.5 3.7 -0.1
v 0.5 3.8 -0.1
v 0.5 3.9 -0.1
v 0.5 4 -0.1
v 0.5 4.1 -0.1
v 0.5 4.2 -0.1
v 0.6 0.1 -0.1
v 0.6 0.2 -0.1
v 0.6 2.5 -0.1
v 0.6 2.6 -0.1
v 0.6 3.8 -0.1
v 0.6 3.9 -0.1
v 0.7 0 -0.1
v 0.7 0.1 -0.1
v 0.7 2.6 -0.1
v 0.7 3.8 -0.1
v 0.7 3.9 -0.1
v 0.7 4.1 -0.1
v 0.8 3.8 -0.1
v 0.8 3.9 -0.1
v 0.9 2.1 -0.1
v 0.9 2.2 -0.1
v 0.9 3.3 -0.1
v 0.9 3.8 -0.1
v 1 2.2 -0.1
v 1 3.3 -0.1
v -0.7 0 0
v 0.7 0 0
v -0.7 0 -0.1
v 0.7 0 -0.1
v -0.9 2.1 0
v -0.2 2.1 0
v 0.2 2.1 0
v 0.9 2.1 0
v -0.9 2.1 -0.1
v -0.2 2.1 -0.1
v 0.2 2.1 -0.1
v 0.9 2.1 -0.1
v -1 2.2 0
v -0.9 2.2 0
v 0.9 2.2 0
v 1 2.2 0
v -1 2.2 -0.1
v -0.9 2.2 -0.1
v 0.9 2.2 -0.1
v 1 2.2 -0.1
v -0.3 4.3 0
v -0.2 4.3 0
v 0.2 4.3 0
v 0.3 4.3 0
v -0.3 4.3 -0.1
v -0.2 4.3 -0.1
v 0.2 4.3 -0.1
v 0.3 4.3 -0.1
v -0.4 4.4 0
v -0.3 4.4 0
v 0.3 4.4 0
v 0.4 4.4 0
v -0.4 4.4 -0.1
v -0.3 4.4 -0.1
v 0.3 4.4 -0.1
v 0.4 4.4 -0.1
v -0.7 0.1 0
v -0.6 0.1 0
v 0.6 0.1 0
v 0.7 0.1 0
v -0.7 0.1 -0.1
v -0.6 0.1 -0.1
v 0.6 0.1 -0.1
v 0.7 0.1 -0.1
v -0.6 0.2 0
v -0.4 0.2 0
v 0.4 0.2 0
v 0.6 0.2 0
v -0.6 0.2 -0.1
v -0.4 0.2 -0.1
v 0.4 0.2 -0.1
v 0.6 0.2 -0.1
v -0.4 0.3 0
v -0.2 0.3 0
v 0.2 0.3 0
v 0.4 0.3 0
v -0.4 0.3 -0.1
v -0.2 0.3 -0.1
v 0.2 0.3 -0.1
v 0.4 0.3 -0.1
v -1 3.3 0
v -0.9 3.3 0
v 0.9 3.3 0
v 1 3.3 0
v -1 3.3 -0.1
v -0.9 3.3 -0.1
v 0.9 3.3 -0.1
v 1 3.3 -0.1
v -0.9 3.8 0
v -0.8 3.8 0
v 0.8 3.8 0
v 0.9 3.8 0
v -0.9 3.8 -0.1
v -0.8 3.8 -0.1
v 0.8 3.8 -0.1
v 0.9 3.8 -0.1
v -0.8 3.9 0
v -0.7 3.9 0
v 0.7 3.9 0
v 0.8 3.9 0
v -0.8 3.9 -0.1
v -0.7 3.9 -0.1
v 0.7 3.9 -0.1
v 0.8 3.9 -0.1
v -0.7 4.1 0
v -0.5 4.1 0
v 0.5 4.1 0
v 0.7 4.1 0
v -0.7 4.1 -0.1
v -0.5 4.1 -0.1
v 0.5 4.1 -0.1
v 0.7 4.1 -0.1
v -0.5 4.2 0
v -0.2 4.2 0
v 0.2 4.2 0
v 0.5 4.2 0
v -0.5 4.2 -0.1
v -0.2 4.2 -0.1
v 0.2 4.2 -0.1
v 0.5 4.2 -0.1
v -0.4 4.9 0
v -0.3 4.9 0
v 0.3 4.9 0
v 0.4 4.9 0
v -0.4 4.9 -0.1
v -0.3 4.9 -0.1
v 0.3 4.9 -0.1
v 0.4 4.9 -0.1
v -0.3 5 0
v 0.3 5 0
v -0.3 5 -0.1
v 0.3 5 -0.1

# faces
f 3/2/1 2/2/1 1/2/1
f 4/2/1 2/2/1 3/2/1
f 7/2/1 6/2/1 5/2/1
f 8/2/1 6/2/1 7/2/1
f 11/2/1 10/2/1 9/2/1
f 12/2/1 10/2/1 11/2/1
f 15/2/1 14/2/1 13/2/1
f 16/2/1 14/2/1 15/2/1
f 19/2/1 18/2/1 17/2/1
f 20/2/1 18/2/1 19/2/1
f 23/2/1 22/2/1 21/2/1
f 24/2/1 22/2/1 23/2/1
f 27/2/1 26/2/1 25/2/1
f 28/2/1 26/2/1 27/2/1
f 31/2/1 30/2/1 29/2/1
f 32/2/1 30/2/1 31/2/1
f 35/2/1 34/2/1 33/2/1
f 36/2/1 34/2/1 35/2/1
f 39/2/1 38/2/1 37/2/1
f 40/2/1 38/2/1 39/2/1
f 43/2/1 42/2/1 41/2/1
f 44/2/1 42/2/1 43/2/1
f 47/2/1 46/2/1 45/2/1
f 48/2/1 46/2/1 47/2/1
f 51/2/1 50/2/1 49/2/1
f 52/2/1 50/2/1 51/2/1
f 55/2/1 54/2/1 53/2/1
f 56/2/1 54/2/1 55/2/1
f 57/2/2 58/2/2 59/2/2
f 59/2/2 58/2/2 60/2/2
f 61/2/2 62/2/2 63/2/2
f 63/2/2 62/2/2 64/2/2
f 65/2/2 66/2/2 67/2/2
f 67/2/2 66/2/2 68/2/2
f 69/2/2 70/2/2 71/2/2
f 71/2/2 70/2/2 72/2/2
f 73/2/2 74/2/2 75/2/2
f 75/2/2 74/2/2 76/2/2
f 77/2/2 78/2/2 79/2/2
f 79/2/2 78/2/2 80/2/2
f 81/2/2 82/2/2 83/2/2
f 83/2/2 82/2/2 84/2/2
f 85/2/2 86/2/2 87/2/2
f 87/2/2 86/2/2 88/2/2
f 89/2/2 90/2/2 91/2/2
f 91/2/2 90/2/2 92/2/2
f 93/2/2 94/2/2 95/2/2
f 95/2/2 94/2/2 96/2/2
f 97/2/2 98/2/2 99/2/2
f 99/2/2 98/2/2 100/2/2
f 101/2/2 102/2/2 103/2/2
f 103/2/2 102/2/2 104/2/2
f 105/2/2 106/2/2 107/2/2
f 107/2/2 106/2/2 108/2/2
f 109/2/2 110/2/2 111/2/2
f 111/2/2 110/2/2 112/2/2
f 116/2/3 114/2/3 113/2/3
f 117/2/3 114/2/3 116/2/3
f 119/2/3 116/2/3 115/2/3
f 119/2/3 118/2/3 117/2/3
f 119/2/3 117/2/3 116/2/3
f 123/2/3 119/2/3 115/2/3
f 123/2/3 120/2/3 119/2/3
f 124/2/3 120/2/3 123/2/3
f 125/2/3 120/2/3 124/2/3
f 127/2/3 122/2/3 121/2/3
f 129/2/3 123/2/3 115/2/3
f 130/1/3 124/1/3 123/1/3
f 130/2/3 123/2/3 129/2/3
f 131/2/3 126/2/3 125/2/3
f 131/1/3 124/1/3 130/1/3
f 131/2/3 125/2/3 124/2/3
f 132/2/3 126/2/3 131/2/3
f 133/2/3 129/2/3 115/2/3
f 134/1/3 130/1/3 129/1/3
f 134/2/3 129/2/3 133/2/3
f 135/2/3 131/2/3 130/2/3
f 135/1/3 130/1/3 134/1/3
f 136/2/3 131/2/3 135/2/3
f 137/2/3 131/2/3 136/2/3
f 138/1/3 132/1/3 131/1/3
f 138/2/3 131/2/3 137/2/3
f 139/2/3 126/2/3 132/2/3
f 139/1/3 132/1/3 138/1/3
f 140/2/3 126/2/3 139/2/3
f 141/2/3 126/2/3 140/2/3
f 143/2/3 128/2/3 127/2/3
f 145/2/3 133/2/3 115/2/3
f 146/1/3 134/1/3 133/1/3
f 146/2/3 133/2/3 145/2/3
f 147/2/3 135/2/3 134/2/3
f 147/1/3 134/1/3 146/1/3
f 147/2/3 136/2/3 135/2/3
f 148/2/3 136/2/3 147/2/3
f 149/1/3 137/1/3 136/1/3
f 149/2/3 136/2/3 148/2/3
f 150/2/3 138/2/3 137/2/3
f 150/1/3 137/1/3 149/1/3
f 150/2/3 139/2/3 138/2/3
f 151/2/3 139/2/3 150/2/3
f 154/2/3 150/2/3 149/2/3
f 155/2/3 150/2/3 154/2/3
f 156/1/3 140/1/3 139/1/3
f 156/2/3 139/2/3 151/2/3
f 157/2/3 142/2/3 141/2/3
f 157/1/3 140/1/3 156/1/3
f 157/2/3 141/2/3 140/2/3
f 158/2/3 142/2/3 157/2/3
f 160/2/3 153/2/3 152/2/3
f 161/2/3 153/2/3 160/2/3
f 162/2/3 153/2/3 161/2/3
f 164/2/3 144/2/3 143/2/3
f 165/2/3 145/2/3 115/2/3
f 166/2/3 148/2/3 147/2/3
f 166/2/3 147/2/3 146/2/3
f 167/1/3 149/1/3 148/1/3
f 167/2/3 148/2/3 166/2/3
f 168/2/3 154/2/3 149/2/3
f 168/1/3 149/1/3 167/1/3
f 169/2/3 154/2/3 168/2/3
f 170/1/3 155/1/3 154/1/3
f 170/2/3 154/2/3 169/2/3
f 171/2/3 150/2/3 155/2/3
f 171/1/3 155/1/3 170/1/3
f 172/2/3 150/2/3 171/2/3
f 173/1/3 151/1/3 150/1/3
f 173/2/3 150/2/3 172/2/3
f 174/2/3 156/2/3 151/2/3
f 174/1/3 151/1/3 173/1/3
f 174/2/3 157/2/3 156/2/3
f 175/2/3 157/2/3 174/2/3
f 176/2/3 142/2/3 158/2/3
f 177/2/3 160/2/3 159/2/3
f 178/1/3 161/1/3 160/1/3
f 178/2/3 160/2/3 177/2/3
f 179/2/3 163/2/3 162/2/3
f 179/1/3 161/1/3 178/1/3
f 179/2/3 162/2/3 161/2/3
f 180/2/3 163/2/3 179/2/3
f 181/2/3 169/2/3 168/2/3
f 181/2/3 168/2/3 167/2/3
f 182/1/3 170/1/3 169/1/3
f 182/2/3 169/2/3 181/2/3
f 183/2/3 171/2/3 170/2/3
f 183/1/3 170/1/3 182/1/3
f 184/2/3 171/2/3 183/2/3
f 185/2/3 171/2/3 184/2/3
f 186/1/3 172/1/3 171/1/3
f 186/2/3 171/2/3 185/2/3
f 187/2/3 173/2/3 172/2/3
f 187/1/3 172/1/3 186/1/3
f 187/2/3 174/2/3 173/2/3
f 188/2/3 174/2/3 187/2/3
f 189/2/3 179/2/3 178/2/3
f 190/2/3 179/2/3 189/2/3
f 191/2/3 181/2/3 167/2/3
f 191/1/3 182/1/3 181/1/3
f 192/2/3 184/2/3 183/2/3
f 192/1/3 182/1/3 191/1/3
f 192/2/3 183/2/3 182/2/3
f 193/2/3 184/2/3 192/2/3
f 194/1/3 185/1/3 184/1/3
f 194/2/3 184/2/3 193/2/3
f 195/2/3 186/2/3 185/2/3
f 195/1/3 185/1/3 194/1/3
f 195/2/3 187/2/3 186/2/3
f 196/2/3 187/2/3 195/2/3
f 197/1/3 188/1/3 187/1/3
f 197/2/3 187/2/3 196/2/3
f 198/2/3 174/2/3 188/2/3
f 198/1/3 188/1/3 197/1/3
f 199/1/3 190/1/3 189/1/3
f 199/2/3 189/2/3 178/2/3
f 200/2/3 179/2/3 190/2/3
f 200/1/3 190/1/3 199/1/3
f 201/2/3 164/2/3 143/2/3
f 201/2/3 165/2/3 164/2/3
f 202/2/3 145/2/3 165/2/3
f 202/2/3 165/2/3 201/2/3
f 203/2/3 166/2/3 146/2/3
f 203/1/3 167/1/3 166/1/3
f 204/2/3 191/2/3 167/2/3
f 204/1/3 167/1/3 203/1/3
f 204/2/3 192/2/3 191/2/3
f 205/2/3 192/2/3 204/2/3
f 206/1/3 193/1/3 192/1/3
f 206/2/3 192/2/3 205/2/3
f 207/2/3 194/2/3 193/2/3
f 207/1/3 193/1/3 206/1/3
f 207/2/3 195/2/3 194/2/3
f 207/2/3 196/2/3 195/2/3
f 208/1/3 197/1/3 196/1/3
f 208/2/3 196/2/3 207/2/3
f 209/2/3 198/2/3 197/2/3
f 209/1/3 197/1/3 208/1/3
f 210/2/3 174/2/3 198/2/3
f 210/2/3 198/2/3 209/2/3
f 211/1/3 175/1/3 174/1/3
f 211/2/3 174/2/3 210/2/3
f 212/2/3 157/2/3 175/2/3
f 212/1/3 175/1/3 211/1/3
f 213/2/3 176/2/3 158/2/3
f 213/2/3 177/2/3 176/2/3
f 214/1/3 178/1/3 177/1/3
f 214/2/3 177/2/3 213/2/3
f 215/2/3 200/2/3 199/2/3
f 215/1/3 178/1/3 214/1/3
f 215/2/3 199/2/3 178/2/3
f 216/2/3 179/2/3 200/2/3
f 216/2/3 200/2/3 215/2/3
f 216/1/3 180/1/3 179/1/3
f 217/2/3 163/2/3 180/2/3
f 217/1/3 180/1/3 216/1/3
f 218/2/3 206/2/3 205/2/3
f 218/2/3 207/2/3 206/2/3
f 218/1/3 208/1/3 207/1/3
f 219/2/3 210/2/3 209/2/3
f 219/1/3 208/1/3 218/1/3
f 219/2/3 209/2/3 208/2/3
f 220/2/3 157/2/3 212/2/3
f 220/2/3 212/2/3 211/2/3
f 221/1/3 158/1/3 157/1/3
f 221/2/3 157/2/3 220/2/3
f 222/2/3 213/2/3 158/2/3
f 222/1/3 158/1/3 221/1/3
f 223/2/3 215/2/3 214/2/3
f 224/1/3 216/1/3 215/1/3
f 224/2/3 215/2/3 223/2/3
f 225/2/3 217/2/3 216/2/3
f 225/1/3 216/1/3 224/1/3
f 226/2/3 163/2/3 217/2/3
f 226/2/3 217/2/3 225/2/3
f 227/2/3 163/2/3 226/2/3
f 228/2/3 143/2/3 127/2/3
f 228/2/3 201/2/3 143/2/3
f 229/2/3 201/2/3 228/2/3
f 230/2/3 145/2/3 202/2/3
f 230/1/3 146/1/3 145/1/3
f 231/2/3 204/2/3 203/2/3
f 231/1/3 146/1/3 230/1/3
f 231/2/3 203/2/3 146/2/3
f 232/2/3 204/2/3 231/2/3
f 233/1/3 205/1/3 204/1/3
f 233/2/3 204/2/3 232/2/3
f 234/2/3 218/2/3 205/2/3
f 234/1/3 205/1/3 233/1/3
f 234/2/3 219/2/3 218/2/3
f 235/1/3 211/1/3 210/1/3
f 235/2/3 219/2/3 234/2/3
f 235/2/3 210/2/3 219/2/3
f 236/2/3 220/2/3 211/2/3
f 236/1/3 211/1/3 235/1/3
f 237/2/3 225/2/3 224/2/3
f 237/2/3 226/2/3 225/2/3
f 238/2/3 226/2/3 237/2/3
f 239/1/3 232/1/3 231/1/3
f 239/2/3 231/2/3 230/2/3
f 240/2/3 233/2/3 232/2/3
f 240/1/3 232/1/3 239/1/3
f 240/2/3 234/2/3 233/2/3
f 241/2/3 234/2/3 240/2/3
f 242/1/3 235/1/3 234/1/3
f 242/2/3 234/2/3 241/2/3
f 243/2/3 236/2/3 235/2/3
f 243/1/3 235/1/3 242/1/3
f 244/2/3 220/2/3 236/2/3
f 244/2/3 236/2/3 243/2/3
f 245/1/3 221/1/3 220/1/3
f 245/2/3 220/2/3 244/2/3
f 246/2/3 222/2/3 221/2/3
f 246/1/3 221/1/3 245/1/3
f 247/2/3 213/2/3 222/2/3
f 247/2/3 222/2/3 246/2/3
f 248/2/3 213/2/3 247/2/3
f 249/2/3 127/2/3 121/2/3
f 249/2/3 228/2/3 127/2/3
f 250/2/3 228/2/3 249/2/3
f 251/1/3 241/1/3 240/1/3
f 251/2/3 240/2/3 239/2/3
f 252/2/3 244/2/3 243/2/3
f 252/1/3 241/1/3 251/1/3
f 252/2/3 243/2/3 242/2/3
f 252/2/3 242/2/3 241/2/3
f 253/1/3 245/1/3 244/1/3
f 253/2/3 244/2/3 252/2/3
f 254/2/3 246/2/3 245/2/3
f 254/1/3 245/1/3 253/1/3
f 254/2/3 247/2/3 246/2/3
f 255/2/3 249/2/3 121/2/3
f 256/2/3 249/2/3 255/2/3
f 257/1/3 253/1/3 252/1/3
f 257/2/3 252/2/3 251/2/3
f 258/2/3 254/2/3 253/2/3
f 258/1/3 253/1/3 257/1/3
f 259/2/3 247/2/3 254/2/3
f 259/2/3 254/2/3 258/2/3
f 260/2/3 247/2/3 259/2/3
f 261/2/3 258/2/3 257/2/3
f 261/2/3 259/2/3 258/2/3
f 262/2/3 259/2/3 261/2/3
f 263/2/3 251/2/3 239/2/3
f 263/2/3 257/2/3 251/2/3
f 263/2/3 261/2/3 257/2/3
f 263/2/3 230/2/3 202/2/3
f 263/2/3 239/2/3 230/2/3
f 264/2/3 261/2/3 263/2/3
f 265/2/3 261/2/3 264/2/3
f 266/2/3 261/2/3 265/2/3
f 267/2/3 265/2/3 264/2/3
f 268/2/3 265/2/3 267/2/3
f 269/2/4 270/2/4 272/2/4
f 272/2/4 270/2/4 273/2/4
f 271/2/4 272/2/4 275/2/4
f 273/2/4 274/2/4 275/2/4
f 272/2/4 273/2/4 275/2/4
f 271/2/4 275/2/4 279/2/4
f 275/2/4 276/2/4 279/2/4
f 279/2/4 276/2/4 280/2/4
f 280/2/4 276/2/4 281/2/4
f 277/2/4 278/2/4 283/2/4
f 271/2/4 279/2/4 285/2/4
f 279/1/4 280/1/4 286/1/4
f 285/2/4 279/2/4 286/2/4
f 281/2/4 282/2/4 287/2/4
f 286/1/4 280/1/4 287/1/4
f 280/2/4 281/2/4 287/2/4
f 287/2/4 282/2/4 288/2/4
f 271/2/4 285/2/4 289/2/4
f 285/1/4 286/1/4 290/1/4
f 289/2/4 285/2/4 290/2/4
f 286/2/4 287/2/4 291/2/4
f 290/1/4 286/1/4 291/1/4
f 291/2/4 287/2/4 292/2/4
f 292/2/4 287/2/4 293/2/4
f 287/1/4 288/1/4 294/1/4
f 293/2/4 287/2/4 294/2/4
f 288/2/4 282/2/4 295/2/4
f 294/1/4 288/1/4 295/1/4
f 295/2/4 282/2/4 296/2/4
f 296/2/4 282/2/4 297/2/4
f 283/2/4 284/2/4 299/2/4
f 271/2/4 289/2/4 301/2/4
f 289/1/4 290/1/4 302/1/4
f 301/2/4 289/2/4 302/2/4
f 290/2/4 291/2/4 303/2/4
f 302/1/4 290/1/4 303/1/4
f 291/2/4 292/2/4 303/2/4
f 303/2/4 292/2/4 304/2/4
f 292/1/4 293/1/4 305/1/4
f 304/2/4 292/2/4 305/2/4
f 293/2/4 294/2/4 306/2/4
f 305/1/4 293/1/4 306/1/4
f 294/2/4 295/2/4 306/2/4
f 306/2/4 295/2/4 307/2/4
f 305/2/4 306/2/4 310/2/4
f 310/2/4 306/2/4 311/2/4
f 295/1/4 296/1/4 312/1/4
f 307/2/4 295/2/4 312/2/4
f 297/2/4 298/2/4 313/2/4
f 312/1/4 296/1/4 313/1/4
f 296/2/4 297/2/4 313/2/4
f 313/2/4 298/2/4 314/2/4
f 308/2/4 309/2/4 316/2/4
f 316/2/4 309/2/4 317/2/4
f 317/2/4 309/2/4 318/2/4
f 299/2/4 300/2/4 320/2/4
f 271/2/4 301/2/4 321/2/4
f 303/2/4 304/2/4 322/2/4
f 302/2/4 303/2/4 322/2/4
f 304/1/4 305/1/4 323/1/4
f 322/2/4 304/2/4 323/2/4
f 305/2/4 310/2/4 324/2/4
f 323/1/4 305/1/4 324/1/4
f 324/2/4 310/2/4 325/2/4
f 310/1/4 311/1/4 326/1/4
f 325/2/4 310/2/4 326/2/4
f 311/2/4 306/2/4 327/2/4
f 326/1/4 311/1/4 327/1/4
f 327/2/4 306/2/4 328/2/4
f 306/1/4 307/1/4 329/1/4
f 328/2/4 306/2/4 329/2/4
f 307/2/4 312/2/4 330/2/4
f 329/1/4 307/1/4 330/1/4
f 312/2/4 313/2/4 330/2/4
f 330/2/4 313/2/4 331/2/4
f 314/2/4 298/2/4 332/2/4
f 315/2/4 316/2/4 333/2/4
f 316/1/4 317/1/4 334/1/4
f 333/2/4 316/2/4 334/2/4
f 318/2/4 319/2/4 335/2/4
f 334/1/4 317/1/4 335/1/4
f 317/2/4 318/2/4 335/2/4
f 335/2/4 319/2/4 336/2/4
f 324/2/4 325/2/4 337/2/4
f 323/2/4 324/2/4 337/2/4
f 325/1/4 326/1/4 338/1/4
f 337/2/4 325/2/4 338/2/4
f 326/2/4 327/2/4 339/2/4
f 338/1/4 326/1/4 339/1/4
f 339/2/4 327/2/4 340/2/4
f 340/2/4 327/2/4 341/2/4
f 327/1/4 328/1/4 342/1/4
f 341/2/4 327/2/4 342/2/4
f 328/2/4 329/2/4 343/2/4
f 342/1/4 328/1/4 343/1/4
f 329/2/4 330/2/4 343/2/4
f 343/2/4 330/2/4 344/2/4
f 334/2/4 335/2/4 345/2/4
f 345/2/4 335/2/4 346/2/4
f 323/2/4 337/2/4 347/2/4
f 337/1/4 338/1/4 347/1/4
f 339/2/4 340/2/4 348/2/4
f 347/1/4 338/1/4 348/1/4
f 338/2/4 339/2/4 348/2/4
f 348/2/4 340/2/4 349/2/4
f 340/1/4 341/1/4 350/1/4
f 349/2/4 340/2/4 350/2/4
f 341/2/4 342/2/4 351/2/4
f 350/1/4 341/1/4 351/1/4
f 342/2/4 343/2/4 351/2/4
f 351/2/4 343/2/4 352/2/4
f 343/1/4 344/1/4 353/1/4
f 352/2/4 343/2/4 353/2/4
f 344/2/4 330/2/4 354/2/4
f 353/1/4 344/1/4 354/1/4
f 345/1/4 346/1/4 355/1/4
f 334/2/4 345/2/4 355/2/4
f 346/2/4 335/2/4 356/2/4
f 355/1/4 346/1/4 356/1/4
f 299/2/4 320/2/4 357/2/4
f 320/2/4 321/2/4 357/2/4
f 321/2/4 301/2/4 358/2/4
f 357/2/4 321/2/4 358/2/4
f 302/2/4 322/2/4 359/2/4
f 322/1/4 323/1/4 359/1/4
f 323/2/4 347/2/4 360/2/4
f 359/1/4 323/1/4 360/1/4
f 347/2/4 348/2/4 360/2/4
f 360/2/4 348/2/4 361/2/4
f 348/1/4 349/1/4 362/1/4
f 361/2/4 348/2/4 362/2/4
f 349/2/4 350/2/4 363/2/4
f 362/1/4 349/1/4 363/1/4
f 350/2/4 351/2/4 363/2/4
f 351/2/4 352/2/4 363/2/4
f 352/1/4 353/1/4 364/1/4
f 363/2/4 352/2/4 364/2/4
f 353/2/4 354/2/4 365/2/4
f 364/1/4 353/1/4 365/1/4
f 354/2/4 330/2/4 366/2/4
f 365/2/4 354/2/4 366/2/4
f 330/1/4 331/1/4 367/1/4
f 366/2/4 330/2/4 367/2/4
f 331/2/4 313/2/4 368/2/4
f 367/1/4 331/1/4 368/1/4
f 314/2/4 332/2/4 369/2/4
f 332/2/4 333/2/4 369/2/4
f 333/1/4 334/1/4 370/1/4
f 369/2/4 333/2/4 370/2/4
f 355/2/4 356/2/4 371/2/4
f 370/1/4 334/1/4 371/1/4
f 334/2/4 355/2/4 371/2/4
f 356/2/4 335/2/4 372/2/4
f 371/2/4 356/2/4 372/2/4
f 335/1/4 336/1/4 372/1/4
f 336/2/4 319/2/4 373/2/4
f 372/1/4 336/1/4 373/1/4
f 361/2/4 362/2/4 374/2/4
f 362/2/4 363/2/4 374/2/4
f 363/1/4 364/1/4 374/1/4
f 365/2/4 366/2/4 375/2/4
f 374/1/4 364/1/4 375/1/4
f 364/2/4 365/2/4 375/2/4
f 368/2/4 313/2/4 376/2/4
f 367/2/4 368/2/4 376/2/4
f 313/1/4 314/1/4 377/1/4
f 376/2/4 313/2/4 377/2/4
f 314/2/4 369/2/4 378/2/4
f 377/1/4 314/1/4 378/1/4
f 370/2/4 371/2/4 379/2/4
f 371/1/4 372/1/4 380/1/4
f 379/2/4 371/2/4 380/2/4
f 372/2/4 373/2/4 381/2/4
f 380/1/4 372/1/4 381/1/4
f 373/2/4 319/2/4 382/2/4
f 381/2/4 373/2/4 382/2/4
f 382/2/4 319/2/4 383/2/4
f 283/2/4 299/2/4 384/2/4
f 299/2/4 357/2/4 384/2/4
f 384/2/4 357/2/4 385/2/4
f 358/2/4 301/2/4 386/2/4
f 301/1/4 302/1/4 386/1/4
f 359/2/4 360/2/4 387/2/4
f 386/1/4 302/1/4 387/1/4
f 302/2/4 359/2/4 387/2/4
f 387/2/4 360/2/4 388/2/4
f 360/1/4 361/1/4 389/1/4
f 388/2/4 360/2/4 389/2/4
f 361/2/4 374/2/4 390/2/4
f 389/1/4 361/1/4 390/1/4
f 374/2/4 375/2/4 390/2/4
f 366/1/4 367/1/4 391/1/4
f 390/2/4 375/2/4 391/2/4
f 375/2/4 366/2/4 391/2/4
f 367/2/4 376/2/4 392/2/4
f 391/1/4 367/1/4 392/1/4
f 380/2/4 381/2/4 393/2/4
f 381/2/4 382/2/4 393/2/4
f 393/2/4 382/2/4 394/2/4
f 387/1/4 388/1/4 395/1/4
f 386/2/4 387/2/4 395/2/4
f 388/2/4 389/2/4 396/2/4
f 395/1/4 388/1/4 396/1/4
f 389/2/4 390/2/4 396/2/4
f 396/2/4 390/2/4 397/2/4
f 390/1/4 391/1/4 398/1/4
f 397/2/4 390/2/4 398/2/4
f 391/2/4 392/2/4 399/2/4
f 398/1/4 391/1/4 399/1/4
f 392/2/4 376/2/4 400/2/4
f 399/2/4 392/2/4 400/2/4
f 376/1/4 377/1/4 401/1/4
f 400/2/4 376/2/4 401/2/4
f 377/2/4 378/2/4 402/2/4
f 401/1/4 377/1/4 402/1/4
f 378/2/4 369/2/4 403/2/4
f 402/2/4 378/2/4 403/2/4
f 403/2/4 369/2/4 404/2/4
f 277/2/4 283/2/4 405/2/4
f 283/2/4 384/2/4 405/2/4
f 405/2/4 384/2/4 406/2/4
f 396/1/4 397/1/4 407/1/4
f 395/2/4 396/2/4 407/2/4
f 399/2/4 400/2/4 408/2/4
f 407/1/4 397/1/4 408/1/4
f 398/2/4 399/2/4 408/2/4
f 397/2/4 398/2/4 408/2/4
f 400/1/4 401/1/4 409/1/4
f 408/2/4 400/2/4 409/2/4
f 401/2/4 402/2/4 410/2/4
f 409/1/4 401/1/4 410/1/4
f 402/2/4 403/2/4 410/2/4
f 277/2/4 405/2/4 411/2/4
f 411/2/4 405/2/4 412/2/4
f 408/1/4 409/1/4 413/1/4
f 407/2/4 408/2/4 413/2/4
f 409/2/4 410/2/4 414/2/4
f 413/1/4 409/1/4 414/1/4
f 410/2/4 403/2/4 415/2/4
f 414/2/4 410/2/4 415/2/4
f 415/2/4 403/2/4 416/2/4
f 413/2/4 414/2/4 417/2/4
f 414/2/4 415/2/4 417/2/4
f 417/2/4 415/2/4 418/2/4
f 395/2/4 407/2/4 419/2/4
f 407/2/4 413/2/4 419/2/4
f 413/2/4 417/2/4 419/2/4
f 358/2/4 386/2/4 419/2/4
f 386/2/4 395/2/4 419/2/4
f 419/2/4 417/2/4 420/2/4
f 420/2/4 417/2/4 421/2/4
f 421/2/4 417/2/4 422/2/4
f 420/2/4 421/2/4 423/2/4
f 423/2/4 421/2/4 424/2/4
f 427/2/5 426/2/5 425/2/5
f 428/2/5 426/2/5 427/2/5
f 433/2/5 430/2/5 429/2/5
f 434/2/5 430/2/5 433/2/5
f 435/2/5 432/2/5 431/2/5
f 436/2/5 432/2/5 435/2/5
f 441/2/5 438/2/5 437/2/5
f 442/2/5 438/2/5 441/2/5
f 443/2/5 440/2/5 439/2/5
f 444/2/5 440/2/5 443/2/5
f 449/2/5 446/2/5 445/2/5
f 450/2/5 446/2/5 449/2/5
f 451/2/5 448/2/5 447/2/5
f 452/2/5 448/2/5 451/2/5
f 457/2/5 454/2/5 453/2/5
f 458/2/5 454/2/5 457/2/5
f 459/2/5 456/2/5 455/2/5
f 460/2/5 456/2/5 459/2/5
f 461/2/6 462/2/6 465/2/6
f 465/2/6 462/2/6 466/2/6
f 463/2/6 464/2/6 467/2/6
f 467/2/6 464/2/6 468/2/6
f 469/2/6 470/2/6 473/2/6
f 473/2/6 470/2/6 474/2/6
f 471/2/6 472/2/6 475/2/6
f 475/2/6 472/2/6 476/2/6
f 477/2/6 478/2/6 481/2/6
f 481/2/6 478/2/6 482/2/6
f 479/2/6 480/2/6 483/2/6
f 483/2/6 480/2/6 484/2/6
f 485/2/6 486/2/6 489/2/6
f 489/2/6 486/2/6 490/2/6
f 487/2/6 488/2/6 491/2/6
f 491/2/6 488/2/6 492/2/6
f 493/2/6 494/2/6 497/2/6
f 497/2/6 494/2/6 498/2/6
f 495/2/6 496/2/6 499/2/6
f 499/2/6 496/2/6 500/2/6
f 501/2/6 502/2/6 505/2/6
f 505/2/6 502/2/6 506/2/6
f 503/2/6 504/2/6 507/2/6
f 507/2/6 504/2/6 508/2/6
f 509/2/6 510/2/6 513/2/6
f 513/2/6 510/2/6 514/2/6
f 511/2/6 512/2/6 515/2/6
f 515/2/6 512/2/6 516/2/6
f 517/2/6 518/2/6 521/2/6
f 521/2/6 518/2/6 522/2/6
f 519/2/6 520/2/6 523/2/6
f 523/2/6 520/2/6 524/2/6
f 525/2/6 526/2/6 529/2/6
f 529/2/6 526/2/6 530/2/6
f 527/2/6 528/2/6 531/2/6
f 531/2/6 528/2/6 532/2/6
f 533/2/6 534/2/6 535/2/6
f 535/2/6 534/2/6 536/2/6
